<svg width="15" height="15" viewBox="0 0 15 15" fill="none" xmlns="http://www.w3.org/2000/svg">
<path d="M4.69677 5.84744L3.7182 6.85172L6.86673 10.0855L13.8667 2.90156L12.8882 1.89728L6.86673 8.03844L4.69677 5.84744ZM13.1671 7.21242C13.162 8.41038 12.7908 9.57651 12.1057 10.5464C11.4206 11.5164 10.4562 12.2412 9.34834 12.6188C8.24053 12.9963 7.04521 13.0076 5.93084 12.6509C4.81647 12.2943 3.83926 11.5877 3.13694 10.6308C2.43462 9.67397 2.04261 8.51502 2.01617 7.31735C1.98972 6.11969 2.33018 4.94371 2.98954 3.95516C3.64891 2.96661 4.59393 2.21535 5.69141 1.80727C6.7889 1.39918 7.9835 1.35485 9.10683 1.68052L10.1914 0.566613C9.36222 0.202315 8.46834 0.0187824 7.56641 0.0276504C6.18194 0.0276504 4.82856 0.448981 3.67742 1.23836C2.52627 2.02774 1.62907 3.14972 1.09925 4.46241C0.569439 5.77511 0.430816 7.21956 0.700912 8.6131C0.971009 10.0066 1.63769 11.2867 2.61666 12.2914C3.59563 13.2961 4.84291 13.9803 6.20078 14.2575C7.55864 14.5347 8.96611 14.3924 10.2452 13.8487C11.5243 13.3049 12.6175 12.3842 13.3867 11.2028C14.1559 10.0214 14.5664 8.63243 14.5664 7.21159L13.1671 7.21242Z" fill="#008AD4"/>
</svg>
