<svg width="15" height="15" viewBox="0 0 15 15" fill="none" xmlns="http://www.w3.org/2000/svg">
<path d="M4.1372 5.8743L3.15863 6.87858L6.30716 10.1124L13.3072 2.92842L12.3286 1.92414L6.30716 8.0653L4.1372 5.8743ZM12.6075 7.23928C12.6024 8.43724 12.2312 9.60337 11.5461 10.5733C10.861 11.5432 9.89658 12.2681 8.78877 12.6456C7.68096 13.0232 6.48563 13.0344 5.37127 12.6778C4.2569 12.3211 3.27969 11.6146 2.57737 10.6577C1.87505 9.70082 1.48304 8.54187 1.4566 7.34421C1.43015 6.14654 1.77061 4.97056 2.42997 3.98202C3.08934 2.99347 4.03436 2.24221 5.13184 1.83412C6.22933 1.42604 7.42393 1.38171 8.54726 1.70738L9.63184 0.593469C8.80265 0.22917 7.90877 0.0456379 7.00684 0.0545059C5.62237 0.0545059 4.26899 0.475836 3.11785 1.26522C1.9667 2.0546 1.0695 3.17658 0.539682 4.48927C0.00986892 5.80196 -0.128754 7.24641 0.141342 8.63996C0.411439 10.0335 1.07812 11.3136 2.05709 12.3183C3.03606 13.3229 4.28334 14.0071 5.64121 14.2843C6.99907 14.5615 8.40654 14.4193 9.68562 13.8755C10.9647 13.3318 12.058 12.411 12.8271 11.2296C13.5963 10.0482 14.0068 8.65929 14.0068 7.23844L12.6075 7.23928Z" fill="#FF3F62"/>
</svg>
