<svg width="15" height="15" viewBox="0 0 15 15" fill="none" xmlns="http://www.w3.org/2000/svg">
<path d="M4.60009 6.06058L3.62152 7.06485L6.77005 10.2986L13.7701 3.11469L12.7915 2.11042L6.77005 8.25158L4.60009 6.06058ZM13.0704 7.42556C13.0653 8.62352 12.6941 9.78965 12.009 10.7596C11.3239 11.7295 10.3595 12.4544 9.25166 12.8319C8.14386 13.2095 6.94853 13.2207 5.83416 12.8641C4.71979 12.5074 3.74258 11.8009 3.04026 10.844C2.33794 9.8871 1.94593 8.72815 1.91949 7.53049C1.89304 6.33282 2.2335 5.15684 2.89286 4.1683C3.55223 3.17975 4.49725 2.42849 5.59473 2.0204C6.69222 1.61232 7.88682 1.56799 9.01015 1.89366L10.0947 0.779748C9.26554 0.415449 8.37166 0.231917 7.46973 0.240785C6.08526 0.240785 4.73188 0.662116 3.58074 1.4515C2.42959 2.24088 1.53239 3.36285 1.00257 4.67555C0.47276 5.98824 0.334136 7.43269 0.604233 8.82624C0.874329 10.2198 1.54101 11.4998 2.51998 12.5045C3.49895 13.5092 4.74623 14.1934 6.1041 14.4706C7.46196 14.7478 8.86943 14.6055 10.1485 14.0618C11.4276 13.5181 12.5208 12.5973 13.29 11.4159C14.0592 10.2345 14.4697 8.84557 14.4697 7.42472L13.0704 7.42556Z" fill="#DA8455"/>
</svg>
