<svg xmlns="http://www.w3.org/2000/svg" width="21" height="20" viewBox="0 0 21 20">
    <path fill="#768FBB" fill-rule="nonzero" d="M9.692 0c1.808 0 3.554.496 5.05 1.431a.808.808 0 0 1-.858 1.37 7.88 7.88 0 0 0-4.192-1.186c-4.453 0-8.077 3.624-8.077 8.077 0 4.454 3.624 8.077 8.077 8.077 4.454 0 8.077-3.623 8.077-8.077a7.51 7.51 0 0 0-.305-2.145.809.809 0 0 1 1.55-.46c.246.833.37 1.709.37 2.605 0 5.346-4.346 9.693-9.692 9.693C4.347 19.385 0 15.038 0 9.692 0 4.347 4.347 0 9.692 0zm11.07.237a.808.808 0 0 1 0 1.143l-10.5 10.5a.811.811 0 0 1-1.142 0L5.082 7.84A.808.808 0 0 1 6.224 6.7l3.468 3.467L19.62.237a.808.808 0 0 1 1.143 0z"/>
</svg>
