<svg width="48" height="47" viewBox="0 0 48 47" fill="none" xmlns="http://www.w3.org/2000/svg">
<path d="M35.2853 42.994L38.8691 31.037C39.2618 29.722 38.2677 28.407 36.8931 28.407H3.6699C2.29532 28.407 1.3012 29.722 1.69394 31.037L5.27768 42.994H20.349" stroke="#102746" stroke-width="1.06" stroke-linecap="round" stroke-linejoin="round"/>
<path d="M2.74955 40.498L0.834952 44.0657C0.282664 45.1006 1.04359 46.3548 2.22181 46.3548H38.3415C39.532 46.3548 40.2806 45.1006 39.7283 44.0657L37.8137 40.498" stroke="#102746" stroke-width="1.06" stroke-linecap="round" stroke-linejoin="round"/>
<path d="M20.2748 30.696H3.96387L4.92117 33.8618H35.6407L36.5857 30.696H20.2748Z" fill="#FF5775"/>
<path d="M24.3008 17.0466L28.9891 21.0282C30.3391 22.1728 31.1123 23.8409 31.1123 25.6065V28.2974" stroke="#102746" stroke-width="1.06" stroke-linecap="round" stroke-linejoin="round"/>
<path d="M16.3845 17.0466L11.6103 21.0282C10.2357 22.1728 9.4502 23.8531 9.4502 25.643V28.2974" stroke="#102746" stroke-width="1.06" stroke-linecap="round" stroke-linejoin="round"/>
<path d="M20.3484 18.6782C23.8798 18.6782 26.7426 15.2874 26.7426 11.1046C26.7426 6.92181 23.8798 3.53101 20.3484 3.53101C16.8169 3.53101 13.9541 6.92181 13.9541 11.1046C13.9541 15.2874 16.8169 18.6782 20.3484 18.6782Z" stroke="#102746" stroke-width="1.06" stroke-linecap="round" stroke-linejoin="round"/>
</svg>
