<svg width="48" height="43" viewBox="0 0 48 43" fill="none" xmlns="http://www.w3.org/2000/svg">
<path d="M8.75195 6.41744V2.29203C8.75195 1.57801 8.17394 1 7.45993 1C6.74591 1 6.1679 1.57801 6.1679 2.29203V6.40611C6.1679 7.12013 6.74591 7.69814 7.45993 7.69814C8.17394 7.69814 8.75195 7.12013 8.75195 6.40611V6.41744Z" stroke="#102746" stroke-width="1.06" stroke-linecap="round" stroke-linejoin="round"/>
<path d="M15.6211 6.41744V2.29203C15.6211 1.57801 15.0431 1 14.3291 1C13.6151 1 13.037 1.57801 13.037 2.29203V6.40611C13.037 7.12013 13.6151 7.69814 14.3291 7.69814C15.0431 7.69814 15.6211 7.12013 15.6211 6.40611V6.41744Z" stroke="#102746" stroke-width="1.06" stroke-linecap="round" stroke-linejoin="round"/>
<path d="M22.499 6.41744V2.29203C22.499 1.57801 21.921 1 21.207 1C20.493 1 19.915 1.57801 19.915 2.29203V6.40611C19.915 7.12013 20.493 7.69814 21.207 7.69814C21.921 7.69814 22.499 7.12013 22.499 6.40611V6.41744Z" stroke="#102746" stroke-width="1.06" stroke-linecap="round" stroke-linejoin="round"/>
<path d="M29.3789 6.41744V2.29203C29.3789 1.57801 28.8009 1 28.0869 1C27.3729 1 26.7949 1.57801 26.7949 2.29203V6.40611C26.7949 7.12013 27.3729 7.69814 28.0869 7.69814C28.8009 7.69814 29.3789 7.12013 29.3789 6.40611V6.41744Z" stroke="#102746" stroke-width="1.06" stroke-linecap="round" stroke-linejoin="round"/>
<path d="M36.2588 6.41744V2.29203C36.2588 1.57801 35.6808 1 34.9668 1C34.2527 1 33.6747 1.57801 33.6747 2.29203V6.40611C33.6747 7.12013 34.2527 7.69814 34.9668 7.69814C35.6808 7.69814 36.2588 7.12013 36.2588 6.40611V6.41744Z" stroke="#102746" stroke-width="1.06" stroke-linecap="round" stroke-linejoin="round"/>
<path d="M8.75204 4.35474H13.0361" stroke="#102746" stroke-width="1.06" stroke-linecap="round" stroke-linejoin="round"/>
<path d="M15.6196 4.35474H19.915" stroke="#102746" stroke-width="1.06" stroke-linecap="round" stroke-linejoin="round"/>
<path d="M22.4995 4.35474H26.7949" stroke="#102746" stroke-width="1.06" stroke-linecap="round" stroke-linejoin="round"/>
<path d="M29.3794 4.35474H33.6748" stroke="#102746" stroke-width="1.06" stroke-linecap="round" stroke-linejoin="round"/>
<path d="M24.5625 37.5846H1.00002V6.25863C1.00002 5.20461 1.85004 4.34326 2.91539 4.34326H6.16812" stroke="#102746" stroke-width="1.06" stroke-linecap="round" stroke-linejoin="round"/>
<path d="M36.2587 4.35474H39.5114C40.5654 4.35474 41.4268 5.20475 41.4268 6.27011V20.3464" stroke="#102746" stroke-width="1.06" stroke-linecap="round" stroke-linejoin="round"/>
<path d="M31.5322 14.8042V18.3743" stroke="#102746" stroke-width="1.06" stroke-linecap="round" stroke-linejoin="round"/>
<path d="M24.6523 14.8042V18.3743" stroke="#102746" stroke-width="1.06" stroke-linecap="round" stroke-linejoin="round"/>
<path d="M17.7734 14.8042V18.3743" stroke="#102746" stroke-width="1.06" stroke-linecap="round" stroke-linejoin="round"/>
<path d="M10.8936 14.8042V18.3743" stroke="#102746" stroke-width="1.06" stroke-linecap="round" stroke-linejoin="round"/>
<path d="M24.6523 26.0583V29.6284" stroke="#102746" stroke-width="1.06" stroke-linecap="round" stroke-linejoin="round"/>
<path d="M17.7734 26.0583V29.6284" stroke="#102746" stroke-width="1.06" stroke-linecap="round" stroke-linejoin="round"/>
<path d="M10.8936 26.0583V29.6284" stroke="#102746" stroke-width="1.06" stroke-linecap="round" stroke-linejoin="round"/>
<path d="M35.9863 21.9897H6.42838" stroke="#102746" stroke-width="1.06" stroke-linecap="round" stroke-linejoin="round"/>
<path d="M36.2598 34.8036C36.2598 35.9672 37.2009 36.9083 38.3645 36.9083C39.528 36.9083 40.4692 35.9672 40.4692 34.8036C40.4692 33.64 39.605 33.101 38.3645 32.6989C37.2608 32.3396 36.2598 31.7578 36.2598 30.5942C36.2598 29.4306 37.2009 28.4895 38.3645 28.4895C39.528 28.4895 40.4692 29.4306 40.4692 30.5942" stroke="#102746" stroke-width="1.06" stroke-linecap="round" stroke-linejoin="round"/>
<path d="M38.3652 27.3088V28.4981" stroke="#102746" stroke-width="1.06" stroke-linecap="round" stroke-linejoin="round"/>
<path d="M38.3652 36.9084V38.0977" stroke="#102746" stroke-width="1.06" stroke-linecap="round" stroke-linejoin="round"/>
<path d="M46.1609 34.5397C47.1769 30.2352 44.511 25.9221 40.2065 24.9061C35.902 23.8902 31.5889 26.5561 30.5729 30.8606C29.557 35.1651 32.2229 39.4781 36.5274 40.4941C40.8319 41.51 45.145 38.8442 46.1609 34.5397Z" stroke="#102746" stroke-width="1.06" stroke-linecap="round" stroke-linejoin="round"/>
<path d="M9.51176 35.652L3.7998 29.8665V35.652H9.51176Z" fill="#8475D6"/>
</svg>
