<svg width="52" height="45" viewBox="0 0 52 45" fill="none" xmlns="http://www.w3.org/2000/svg">
<path d="M50.7447 19.7849H27.1816V43.7357H50.7447V19.7849Z" stroke="#102746" stroke-width="1.06" stroke-linecap="round" stroke-linejoin="round"/>
<path d="M42.8662 25.866H47.3324" stroke="#102746" stroke-width="1.06" stroke-linecap="round" stroke-linejoin="round"/>
<path d="M30.6055 25.866H35.0717" stroke="#102746" stroke-width="1.06" stroke-linecap="round" stroke-linejoin="round"/>
<path d="M32.832 23.5901V28.1298" stroke="#102746" stroke-width="1.06" stroke-linecap="round" stroke-linejoin="round"/>
<path d="M31.2568 36.5588L34.4199 39.7739" stroke="#102746" stroke-width="1.06" stroke-linecap="round" stroke-linejoin="round"/>
<path d="M34.4199 36.5588L31.2568 39.7739" stroke="#102746" stroke-width="1.06" stroke-linecap="round" stroke-linejoin="round"/>
<path d="M42.3809 38.1123H46.8471" stroke="#102746" stroke-width="1.06" stroke-linecap="round" stroke-linejoin="round"/>
<path d="M44.7743 36.0532C44.715 36.1134 44.6203 36.1134 44.561 36.0532C44.5018 35.993 44.5018 35.8966 44.561 35.8364C44.6203 35.7762 44.715 35.7762 44.7743 35.8364C44.8335 35.8966 44.8335 35.993 44.7743 36.0532Z" stroke="#102746" stroke-width="1.06" stroke-linecap="round" stroke-linejoin="round"/>
<path d="M44.7743 40.5327C44.715 40.5929 44.6203 40.5929 44.561 40.5327C44.5018 40.4724 44.5018 40.3761 44.561 40.3159C44.6203 40.2557 44.715 40.2557 44.7743 40.3159C44.8335 40.3761 44.8335 40.4724 44.7743 40.5327Z" stroke="#102746" stroke-width="1.06" stroke-linecap="round" stroke-linejoin="round"/>
<path d="M27.1816 31.7542H50.7447" stroke="#102746" stroke-width="1.06" stroke-linecap="round" stroke-linejoin="round"/>
<path d="M39.0996 19.7849V43.7236" stroke="#102746" stroke-width="1.06" stroke-linecap="round" stroke-linejoin="round"/>
<path d="M27.1812 25.0229H12.8467" stroke="#102746" stroke-width="1.06" stroke-miterlimit="10" stroke-linecap="round"/>
<path d="M5.39551 33.3076V5.47949H38.969V16.9311" stroke="#102746" stroke-width="1.06" stroke-miterlimit="10" stroke-linecap="round"/>
<path d="M27.1934 10.1636C28.6742 11.6688 29.3613 13.6797 29.2547 15.6545" stroke="#102746" stroke-width="1.06" stroke-miterlimit="10" stroke-linecap="round"/>
<path d="M17.1708 20.3387C14.4105 17.533 14.4105 12.9693 17.1708 10.1636" stroke="#102746" stroke-width="1.06" stroke-miterlimit="10" stroke-linecap="round"/>
<path d="M11.1649 14.7637C11.1649 14.9925 10.9872 15.1731 10.7622 15.1731C10.5371 15.1731 10.3594 14.9925 10.3594 14.7637C10.3594 14.5349 10.5371 14.3542 10.7622 14.3542C10.9872 14.3542 11.1649 14.5349 11.1649 14.7637Z" stroke="#102746" stroke-width="1.06" stroke-miterlimit="10" stroke-linecap="round"/>
<path d="M34.0048 14.7637C34.0048 14.9925 33.8271 15.1731 33.602 15.1731C33.3769 15.1731 33.1992 14.9925 33.1992 14.7637C33.1992 14.5349 33.3769 14.3542 33.602 14.3542C33.8271 14.3542 34.0048 14.5349 34.0048 14.7637Z" stroke="#102746" stroke-width="1.06" stroke-miterlimit="10" stroke-linecap="round"/>
<path d="M24.1369 13.2703C24.1369 12.1745 23.2603 11.2834 22.1822 11.2834C21.1042 11.2834 20.2275 12.1745 20.2275 13.2703C20.2275 14.3661 21.0331 14.8718 22.1822 15.2572C23.2129 15.5943 24.1369 16.1483 24.1369 17.244C24.1369 18.3398 23.2603 19.2309 22.1822 19.2309C21.1042 19.2309 20.2275 18.3398 20.2275 17.244" stroke="#102746" stroke-width="1.06" stroke-miterlimit="10" stroke-linecap="round"/>
<path d="M22.1826 20.3386V19.2188" stroke="#102746" stroke-width="1.06" stroke-miterlimit="10" stroke-linecap="round"/>
<path d="M22.1826 11.2834V10.1636" stroke="#102746" stroke-width="1.06" stroke-miterlimit="10" stroke-linecap="round"/>
<path d="M5.39512 20.5435H1V1H34.5735V5.47947" stroke="#102746" stroke-width="1.06" stroke-miterlimit="10" stroke-linecap="round"/>
<path d="M9.12695 30.8149V25.1072" stroke="#102746" stroke-width="1.06" stroke-miterlimit="10" stroke-linecap="round"/>
<path d="M12.8467 25.1072V28.2982" stroke="#102746" stroke-width="1.06" stroke-miterlimit="10" stroke-linecap="round"/>
<path d="M6.9639 7.90246L6.9639 15.3039L15.3037 7.03589L7.838 7.03589C7.36513 7.03589 6.97823 7.41945 6.97823 7.88826L6.9639 7.90246Z" fill="#008AD4"/>
</svg>
