<svg width="52" height="57" viewBox="0 0 52 57" fill="none" xmlns="http://www.w3.org/2000/svg">
<g clip-path="url(#clip0_393_375)">
<path d="M4.07266 40.0422H11.4741L3.20609 31.7024V39.1681C3.20609 39.641 3.58965 40.0279 4.05845 40.0279L4.07266 40.0422Z" fill="#FF3F62"/>
<path d="M19.8954 42.5689H4.12662C2.26562 42.5689 0.759766 41.0499 0.759766 39.1728V4.32322C0.759766 2.51769 2.223 1.04175 4.01297 1.04175H21.7422C23.5464 1.04175 24.9954 2.51769 24.9954 4.32322V20.9455" stroke="#102746" stroke-width="1.06" stroke-miterlimit="10" stroke-linecap="round"/>
<path d="M7.19513 1.04175V2.64666C7.19513 3.62107 7.97647 4.42353 8.95669 4.42353H16.7985C17.7645 4.42353 18.56 3.62107 18.56 2.64666V1.04175" stroke="#102746" stroke-width="1.06" stroke-miterlimit="10" stroke-linecap="round"/>
<path d="M17.8497 31.3773C16.0598 29.5718 16.0598 26.6342 17.8497 24.8144C19.6397 22.9945 22.552 23.0088 24.3561 24.8144" stroke="#102746" stroke-width="1.06" stroke-linecap="round" stroke-linejoin="round"/>
<path d="M39.6703 30.8613C39.6703 30.8613 41.4745 32.7815 42.1564 35.1459C43.0798 38.327 43.5202 40.978 46.0773 43.5573" stroke="#102746" stroke-width="1.06" stroke-miterlimit="10" stroke-linecap="round"/>
<path d="M32.3116 32.3085C29.7403 29.5286 29.1862 28.6975 28.2486 28.8694C27.1832 29.0844 27.0695 30.2594 27.0553 31.2625" stroke="#102746" stroke-width="1.06" stroke-miterlimit="10" stroke-linecap="round"/>
<path d="M35.7921 31.3916C33.2208 28.6116 32.6667 27.7805 31.7291 27.9525C30.6637 28.1674 30.55 29.3424 30.5358 30.3455" stroke="#102746" stroke-width="1.06" stroke-miterlimit="10" stroke-linecap="round"/>
<path d="M39.6703 30.8613C37.099 28.0813 36.545 27.2502 35.6074 27.4222C34.5419 27.6371 34.4283 28.8122 34.4141 29.8152" stroke="#102746" stroke-width="1.06" stroke-miterlimit="10" stroke-linecap="round"/>
<path d="M39.6845 55.5225L37.7525 53.5736C37.3121 53.1294 37.3121 52.3986 37.7525 51.9401L46.7166 42.8981C47.157 42.4539 47.8815 42.4539 48.3361 42.8981L50.2681 44.8469" stroke="#102746" stroke-width="1.06" stroke-miterlimit="10" stroke-linecap="round"/>
<path d="M38.5054 51.1807L35.8489 48.501C31.7291 44.3455 29.3709 44.3168 26.1461 44.0016C26.1461 44.0016 23.7311 43.629 22.2536 41.8951C20.9751 40.4048 22.7935 38.2554 24.4414 39.3158C24.5976 39.4161 24.7539 39.5307 24.9102 39.674C25.6631 40.3189 26.6717 40.5481 27.6093 40.2329C28.8169 39.8317 29.172 38.2984 28.277 37.3956L27.8793 36.9944L20.3358 29.3854C19.7107 28.7549 19.7107 27.7518 20.3358 27.1213C20.9609 26.4908 21.9553 26.4908 22.5804 27.1213L29.2004 33.7989" stroke="#102746" stroke-width="1.06" stroke-miterlimit="10" stroke-linecap="round"/>
</g>
<path fill-rule="evenodd" clip-rule="evenodd" d="M15.0238 10.9669C15.1771 10.8756 15.6717 10.7384 16.6825 10.398C17.0805 10.2435 17.4605 10.1059 17.7993 9.9917C17.2784 9.49458 16.6862 9.09489 16.0505 8.80103C15.8122 9.05651 15.5298 9.33856 15.2143 9.62721C14.5449 10.2397 14.0324 10.4754 13.7231 10.5469C13.7003 10.8065 13.4498 11.3361 13.1318 12.2899C13.0201 12.6249 12.9008 12.9433 12.7824 13.2337C12.7962 13.2337 12.8105 13.2337 12.8265 13.2337C12.8362 13.2337 12.8473 13.234 12.8594 13.2344C13.0756 12.9406 13.3305 12.6115 13.6105 12.2679C14.2637 11.4658 14.7558 11.0893 15.0238 10.9669Z" fill="#FF3F62"/>
<path fill-rule="evenodd" clip-rule="evenodd" d="M19.1072 11.7412C18.8397 11.2248 18.5153 10.76 18.1462 10.3494C17.8161 10.5122 17.4242 10.6866 16.9929 10.8542C16.1541 11.1799 15.5931 11.2114 15.2796 11.1642C15.1678 11.3981 14.7489 11.8005 14.1187 12.5742C13.9083 12.8327 13.6965 13.0745 13.4939 13.2935C13.5439 13.3009 13.5817 13.308 13.5983 13.3139C15.6121 13.7492 17.075 15.2912 17.0549 16.4247C17.0347 17.5581 16.1131 18.3187 14.4471 18.9945C13.0411 19.5121 12.1082 19.2518 11.0534 18.9945C10.7903 18.9252 10.519 18.8278 10.2628 18.6881L10.284 18.7436C10.4874 19.3068 10.4471 19.914 10.2112 20.4922C10.1948 20.5322 10.1771 20.5821 10.1579 20.6341C12.0259 21.7315 14.3854 21.8507 16.4265 20.7368C19.5874 19.012 20.7876 14.9844 19.1072 11.7412Z" fill="#FF3F62"/>
<path fill-rule="evenodd" clip-rule="evenodd" d="M13.221 16.1971C13.6253 16.1753 13.9389 15.8773 13.9212 15.5314C13.9035 15.1858 13.5614 14.9228 13.1571 14.9446C12.7528 14.9664 12.4395 15.2644 12.457 15.6102C12.4747 15.9561 12.8168 16.2189 13.221 16.1971Z" fill="#FF3F62"/>
<path fill-rule="evenodd" clip-rule="evenodd" d="M9.17786 17.4868C9.13913 17.3889 9.10528 17.2853 9.07718 17.1756C8.51491 14.7689 10.8956 13.665 11.1634 13.5905C11.4311 13.516 11.6444 13.417 12.1487 13.3141C12.1689 13.3105 12.1868 13.3073 12.2054 13.3039C12.3012 12.9666 12.4176 12.5892 12.5501 12.1918C12.8792 11.2046 13.2067 10.6723 13.4144 10.4586C13.5242 10.3173 13.938 10.0078 14.7653 9.31627C15.0479 9.0576 15.3219 8.81665 15.5737 8.60364C13.9148 7.99343 12.0206 8.07564 10.3418 8.99175C7.47955 10.5537 6.22512 14.0038 7.26137 17.0498C7.97809 17.0339 8.64413 17.1872 9.17786 17.4868Z" fill="#FF3F62"/>
<defs>
<clipPath id="clip0_393_375">
<rect width="51" height="56" fill="white" transform="translate(0.00683594 0.282227)"/>
</clipPath>
</defs>
</svg>
