<svg width="115" height="114" viewBox="0 0 115 114" fill="none" xmlns="http://www.w3.org/2000/svg">
<mask id="mask0_393_639" style="mask-type:alpha" maskUnits="userSpaceOnUse" x="0" y="0" width="115" height="114">
<ellipse cx="57.2889" cy="57.1768" rx="57" ry="56.5" fill="url(#paint0_linear_393_639)"/>
</mask>
<g mask="url(#mask0_393_639)">
<ellipse cx="57.2889" cy="57.1768" rx="57" ry="56.5" fill="url(#paint1_linear_393_639)"/>
<path d="M57.2042 66.0484L60.5984 73.1264C60.9002 73.7401 61.4868 74.1843 62.1588 74.2778L69.7559 75.4117C69.9894 75.4409 70.0805 75.7449 69.9097 75.9085L64.414 81.4143C63.93 81.8935 63.7022 82.5949 63.8217 83.2846L65.1145 91.0464C65.1544 91.286 64.9152 91.4672 64.7045 91.362L57.9104 87.6973C57.3067 87.37 56.5891 87.37 55.9855 87.6973L49.1914 91.362C48.9807 91.4672 48.7358 91.286 48.7756 91.0464L50.0741 83.2846C50.188 82.5949 49.9659 81.8935 49.4818 81.4143L43.9805 75.9085C43.8153 75.7449 43.9064 75.4409 44.1399 75.4117L51.737 74.2778C52.409 74.1843 52.9956 73.7401 53.2974 73.1264L56.6916 66.0484C56.7942 65.838 57.096 65.838 57.2042 66.0484Z" stroke="#102746" stroke-width="2.06" stroke-miterlimit="10" stroke-linecap="round"/>
<path d="M53.1483 83.8398C53.4387 82.1039 52.8806 80.3388 51.6562 79.1231L50.2723 77.732L52.1858 77.4456C53.8716 77.1943 55.3352 76.1013 56.0926 74.5291L56.9468 72.764L57.8011 74.5291C58.5585 76.1013 60.0164 77.1943 61.7078 77.4456L63.6213 77.732L62.2375 79.1231C61.013 80.3388 60.4549 82.1039 60.7454 83.8398L61.07 85.7802L59.3615 84.8567C58.6155 84.4651 57.784 84.2547 56.9468 84.2547C56.1097 84.2547 55.2725 84.4651 54.5322 84.8567L52.8237 85.7802L53.1483 83.8398Z" fill="#00BFA5"/>
<path d="M67.2264 53.9439C67.2264 53.9439 77.4261 59.6133 81.3898 62.8922C82.3295 63.6696 83.1268 64.6106 83.7703 65.6568C84.9663 67.6206 85.5187 69.9235 85.5187 72.2263V82.326H67.7732" stroke="#102746" stroke-width="2.06" stroke-miterlimit="10" stroke-linecap="round"/>
<path d="M46.6679 53.9439C46.6679 53.9439 36.4682 59.6133 32.5045 62.8922C31.5592 63.6696 30.7676 64.6106 30.124 65.6568C28.9281 67.6206 28.37 69.9235 28.37 72.2263V82.326H46.1212" stroke="#102746" stroke-width="2.06" stroke-miterlimit="10" stroke-linecap="round"/>
<path d="M71.3324 41.1205C71.3324 51.2319 64.8914 59.4496 56.9469 59.4496C49.0024 59.4496 42.5614 51.2319 42.5614 41.1205C42.5614 30.9916 49.0024 22.7739 56.9469 22.7739C64.8914 22.7739 71.3324 30.9916 71.3324 41.1205Z" stroke="#102746" stroke-width="2.06" stroke-miterlimit="10" stroke-linecap="round"/>
</g>
<defs>
<linearGradient id="paint0_linear_393_639" x1="32.7789" y1="0.676819" x2="56.8794" y2="113.764" gradientUnits="userSpaceOnUse">
<stop stop-color="#AEFFDD"/>
<stop offset="1" stop-color="#C2EDFF"/>
</linearGradient>
<linearGradient id="paint1_linear_393_639" x1="32.7789" y1="0.676819" x2="56.8794" y2="113.764" gradientUnits="userSpaceOnUse">
<stop stop-color="#CFFDEC"/>
<stop offset="1" stop-color="#D9F4FD"/>
</linearGradient>
</defs>
</svg>
