<svg width="115" height="114" viewBox="0 0 115 114" fill="none" xmlns="http://www.w3.org/2000/svg">
<ellipse cx="57.784" cy="57.1768" rx="57" ry="56.5" fill="url(#paint0_linear_393_651)"/>
<g clip-path="url(#clip0_393_651)">
<path d="M80.4956 86.376V41.5913C80.4956 39.8839 79.1159 38.509 77.4027 38.509H38.1804C36.4672 38.509 35.0875 39.8839 35.0875 41.5913V86.376" stroke="#102746" stroke-width="2.06" stroke-linecap="round" stroke-linejoin="round"/>
<path d="M46.7162 86.376V78.368C46.7162 77.4463 47.4743 76.6908 48.3992 76.6908H66.5017C67.4266 76.6908 68.1846 77.4463 68.1846 78.368V86.376" stroke="#102746" stroke-width="2.06" stroke-linecap="round" stroke-linejoin="round"/>
<path d="M57.4352 76.6908V86.376" stroke="#102746" stroke-width="2.06" stroke-linecap="round" stroke-linejoin="round"/>
<path d="M44.2146 44.583H48.5053C48.9601 44.583 49.324 44.9456 49.324 45.3989V49.6749C49.324 50.1282 48.9601 50.4908 48.5053 50.4908H44.2146C43.7598 50.4908 43.3959 50.1282 43.3959 49.6749V45.3989C43.3959 44.9456 43.7598 44.583 44.2146 44.583Z" fill="#00BFA5"/>
<path d="M59.9369 44.583H55.6463C55.1941 44.583 54.8276 44.9483 54.8276 45.3989V49.6749C54.8276 50.1255 55.1941 50.4908 55.6463 50.4908H59.9369C60.3891 50.4908 60.7556 50.1255 60.7556 49.6749V45.3989C60.7556 44.9483 60.3891 44.583 59.9369 44.583Z" fill="#00BFA5"/>
<path d="M67.0627 44.583H71.3534C71.8082 44.583 72.1721 44.9456 72.1721 45.3989V49.6749C72.1721 50.1282 71.8082 50.4908 71.3534 50.4908H67.0627C66.6079 50.4908 66.244 50.1282 66.244 49.6749V45.3989C66.244 44.9456 66.6079 44.583 67.0627 44.583Z" fill="#00BFA5"/>
<path d="M44.2146 55.0992H48.5053C48.9601 55.0992 49.324 55.4619 49.324 55.9152V60.1912C49.324 60.6444 48.9601 61.0071 48.5053 61.0071H44.2146C43.7598 61.0071 43.3959 60.6444 43.3959 60.1912V55.9152C43.3959 55.4619 43.7598 55.0992 44.2146 55.0992Z" fill="#00BFA5"/>
<path d="M59.9369 55.0992H55.6463C55.1941 55.0992 54.8276 55.4645 54.8276 55.9152V60.1912C54.8276 60.6418 55.1941 61.0071 55.6463 61.0071H59.9369C60.3891 61.0071 60.7556 60.6418 60.7556 60.1912V55.9152C60.7556 55.4645 60.3891 55.0992 59.9369 55.0992Z" fill="#00BFA5"/>
<path d="M67.0627 55.0992H71.3534C71.8082 55.0992 72.1721 55.4619 72.1721 55.9152V60.1912C72.1721 60.6444 71.8082 61.0071 71.3534 61.0071H67.0627C66.6079 61.0071 66.244 60.6444 66.244 60.1912V55.9152C66.244 55.4619 66.6079 55.0992 67.0627 55.0992Z" fill="#00BFA5"/>
<path d="M44.2146 65.6155H48.5053C48.9601 65.6155 49.324 65.9781 49.324 66.4314V70.7074C49.324 71.1607 48.9601 71.5233 48.5053 71.5233H44.2146C43.7598 71.5233 43.3959 71.1607 43.3959 70.7074V66.4314C43.3959 65.9781 43.7598 65.6155 44.2146 65.6155Z" fill="#00BFA5"/>
<path d="M59.9369 65.6155H55.6463C55.1941 65.6155 54.8276 65.9808 54.8276 66.4314V70.7074C54.8276 71.158 55.1941 71.5233 55.6463 71.5233H59.9369C60.3891 71.5233 60.7556 71.158 60.7556 70.7074V66.4314C60.7556 65.9808 60.3891 65.6155 59.9369 65.6155Z" fill="#00BFA5"/>
<path d="M67.0627 65.6155H71.3534C71.8082 65.6155 72.1721 65.9781 72.1721 66.4314V70.7074C72.1721 71.1607 71.8082 71.5233 71.3534 71.5233H67.0627C66.6079 71.5233 66.244 71.1607 66.244 70.7074V66.4314C66.244 65.9781 66.6079 65.6155 67.0627 65.6155Z" fill="#00BFA5"/>
<path d="M42.653 38.509V29.8361C42.653 28.8086 43.4869 27.9776 44.5179 27.9776H71.0501C72.0811 27.9776 72.9149 28.8086 72.9149 29.8361V38.509" stroke="#102746" stroke-width="2.06" stroke-linecap="round" stroke-linejoin="round"/>
</g>
<defs>
<linearGradient id="paint0_linear_393_651" x1="33.274" y1="0.676819" x2="57.3745" y2="113.764" gradientUnits="userSpaceOnUse">
<stop stop-color="#CFFDEC"/>
<stop offset="1" stop-color="#D9F4FD"/>
</linearGradient>
<clipPath id="clip0_393_651">
<rect width="47" height="60" fill="white" transform="translate(34.284 27.1768)"/>
</clipPath>
</defs>
</svg>
