<svg xmlns="http://www.w3.org/2000/svg" xmlns:xlink="http://www.w3.org/1999/xlink" width="200" height="42" viewBox="0 0 200 42">
    <defs>
        <path id="a" d="M1.474 27.845l9.21 10.938c5.967 3.386 13.504 3.754 20.023.316 10.096-5.323 13.93-17.752 8.561-27.762C35.546 4.397 28.38.443 20.968.443c-3.278 0-6.605.774-9.7 2.406C2.083 7.691-1.918 18.413 1.473 27.845z"/>
        <path id="c" d="M12.503 1.203c-.855.23-8.459 3.636-6.663 11.06.09.34.198.659.322.961-1.63-.884-3.649-1.357-5.826-1.352-.092 0-.29.007-.295.013 0 .001 1.09 3.338 3.266 5.991 1.602 1.955 3.598 3.644 5.987 5.068.028-.073.075-.21.1-.276.024-.061.047-.119.069-.17.753-1.784.881-3.66.232-5.396l-.067-.172c.819.433 1.684.732 2.525.946 3.369.793 6.348 1.598 10.839 0 5.32-2.086 8.264-4.433 8.328-7.929.064-3.498-4.608-8.254-11.04-9.597-.247-.086-1.947-.246-2.465-.246l-.108-.002h-.141c-.336 0-.605.02-1.916.248-1.61.317-2.292.622-3.147.853zM18.87 5.38c1.291-.067 2.384.744 2.44 1.81.057 1.068-.944 1.988-2.236 2.056a3.49 3.49 0 0 1-.146.003c-1.227 0-2.24-.788-2.294-1.815-.056-1.067.945-1.986 2.236-2.054z"/>
        <path id="e" d="M11.924.342a88.693 88.693 0 0 0-2.5 2.131C6.782 4.606 5.46 5.562 5.109 5.998c-.663.659-1.709 2.302-2.76 5.348-1.475 4.272-2.334 7.81-1.92 7.899.416.09 2.304-3.323 3.778-7.595 1.015-2.942 1.815-4.577 1.888-5.378.989-.22 2.625-.948 4.763-2.837A47.49 47.49 0 0 0 13.471.944a.833.833 0 0 0 .056-.06 23.618 23.618 0 0 0-.744-.317c-.253-.1-.51-.199-.771-.292-.041.03-.072.051-.088.067z"/>
        <path id="g" d="M18.388.437a88.15 88.15 0 0 0-3.536 1.244C11.608 2.737 10.03 3.158 9.548 3.44 8.69 3.82 7.12 4.982 5.04 7.45c-2.92 3.466-5 6.462-4.646 6.693.355.231 3.35-2.284 6.271-5.749 2.012-2.385 3.35-3.627 3.707-4.349 1.003.145 2.793.048 5.472-.958a46.984 46.984 0 0 0 3.652-1.542c.007-.003.02-.005.042-.01a31.322 31.322 0 0 0-.557-.575 16.51 16.51 0 0 0-.56-.534l-.033.011z"/>
    </defs>
    <g fill="none" fill-rule="evenodd">
        <g fill="#33415A">
            <path d="M177.78 9.225c-2.235 2.477-3.508 5.761-3.819 9.852l-.058 2.36.058 2.36c.311 4.13 1.594 7.798 3.849 10.257 2.255 2.458 5.227 3.687 8.92 3.687 2.294 0 4.355-.424 6.182-1.268 1.827-.846 3.255-1.85 4.285-3.01 1.03-1.16 1.546-2.153 1.546-2.978a.96.96 0 0 0-.35-.768c-.233-.197-.525-.295-.875-.295h-.933c-.467 0-.787.06-.961.178-.175.117-.438.413-.788.885-.583.864-1.546 1.72-2.886 2.566-1.341.845-3.082 1.268-5.22 1.268-1.826 0-3.42-.481-4.78-1.446-1.361-.963-2.42-2.242-3.178-3.834-.758-1.594-1.176-3.689-1.254-5.537v-.59h20.758c.389 0 .71-.118.961-.353.254-.237.38-.552.38-.944v-.885c0-4.72-1.137-8.438-3.41-11.151-2.276-2.714-5.433-4.07-9.476-4.07-3.732 0-6.715 1.237-8.95 3.716zm-.262 10.148c0-3.029.826-5.527 2.478-7.493 1.652-1.967 3.897-2.95 6.735-2.95 2.837 0 5.102.983 6.793 2.95 1.69 1.966 2.536 4.464 2.536 7.493v.235h-18.542v-.235zM153.278 6.697c-1.507.792-2.849 1.96-4.024 3.507V7.409c0-.395-.117-.712-.353-.95-.234-.238-.548-.357-.94-.357h-.998c-.392 0-.705.119-.94.357s-.353.555-.353.95v29.024c0 .396.118.714.354.952.234.237.547.356.94.356h.998c.391 0 .705-.12.94-.356.235-.238.352-.556.352-.952V19.527c0-3.17.843-6.064 2.527-7.867 1.683-1.803 3.936-2.705 6.755-2.705 2.898 0 5.12.892 6.668 2.674 1.547 1.784 2.32 4.688 2.32 7.898v16.906c0 .396.118.714.352.952.236.237.549.356.94.356h1c.39 0 .704-.12.94-.356.235-.238.35-.556.35-.952V19.23c0-3.924-1.037-7.53-3.112-10.007-2.076-2.477-5.032-3.715-8.87-3.715-2.39 0-4.337.395-5.846 1.189zM120.156 9.298c-2.262 2.527-3.451 5.8-3.57 9.82l-.058 2.506.059 2.508c.118 4.018 1.307 7.292 3.569 9.818 2.262 2.527 5.437 3.791 9.527 3.791 4.09 0 7.266-1.264 9.527-3.791 2.263-2.526 3.452-5.8 3.57-9.818.04-.398.058-1.234.058-2.508 0-1.273-.019-2.108-.057-2.506-.119-4.02-1.308-7.293-3.57-9.82-2.262-2.527-5.437-3.79-9.528-3.79-4.09 0-7.265 1.263-9.527 3.79zm2.773 22.265c-1.71-1.811-2.626-4.388-2.744-7.73l-.059-2.21.06-2.207c.117-3.344 1.032-5.92 2.743-7.73 1.71-1.811 3.962-2.716 6.754-2.716 2.793 0 5.045.905 6.754 2.716 1.712 1.81 2.626 4.386 2.744 7.73.04.398.06 1.134.06 2.208 0 1.075-.02 1.811-.06 2.21-.118 3.341-1.032 5.918-2.744 7.73-1.71 1.81-3.961 2.714-6.754 2.714-2.792 0-5.044-.905-6.754-2.715zM84.254 5.508a1.19 1.19 0 0 0-.873.371 1.219 1.219 0 0 0-.368.884v29.722c0 .341.123.636.368.884.245.249.537.372.873.372h6.021c.338 0 .63-.123.874-.372.245-.248.367-.543.367-.884v-9.631h4.23l5.1 9.63c.185.373.414.676.69.908.276.232.69.35 1.241.35h6.25a.964.964 0 0 0 .713-.303c.199-.202.299-.441.299-.721 0-.155-.045-.326-.138-.511l-5.699-10.749c3.646-1.705 5.47-4.805 5.47-9.3 0-3.535-1.134-6.193-3.402-7.976-2.267-1.782-5.453-2.674-9.56-2.674H84.254zm7.262 7.208h5.194c2.973 0 4.458 1.147 4.458 3.442 0 2.293-1.485 3.44-4.458 3.44h-5.194v-6.882zM72.808 5.508c-.34 0-.632.123-.877.371a1.215 1.215 0 0 0-.37.884v11.209H61.316V6.763c0-.34-.122-.635-.368-.884a1.194 1.194 0 0 0-.878-.37h-6.045c-.339 0-.63.122-.877.37-.246.249-.37.544-.37.884v29.722c0 .372.124.675.37.907.247.232.538.35.877.35h6.045c.34 0 .631-.124.878-.373a1.21 1.21 0 0 0 .368-.884V25.412h10.247v11.073c0 .341.123.636.369.884.245.249.538.372.877.372h6.045c.339 0 .631-.123.877-.372a1.21 1.21 0 0 0 .37-.884V6.763c0-.34-.124-.635-.37-.884a1.192 1.192 0 0 0-.877-.37h-6.045z"/>
        </g>
        <g>
            <mask id="b" fill="#fff">
                <use xlink:href="#a"/>
            </mask>
            <path fill="#00BFA5" d="M30.984-11.443L-11.513 10.96l22.7 42.33 42.497-22.404z" mask="url(#b)"/>
        </g>
        <g transform="translate(1.389 15.836)">
            <mask id="d" fill="#fff">
                <use xlink:href="#c"/>
            </mask>
            <path fill="#FFF" d="M-3.431 26.35h38.224V-3.34H-3.43z" mask="url(#d)"/>
        </g>
        <g transform="translate(15.972 1.377)">
            <mask id="f" fill="#fff">
                <use xlink:href="#e"/>
            </mask>
            <path fill="#FFF" d="M16.619-3.58L-4.985-1.706l2.18 24.69 21.602-1.874z" mask="url(#f)"/>
        </g>
        <g transform="translate(16.667 5.508)">
            <mask id="h" fill="#fff">
                <use xlink:href="#g"/>
            </mask>
            <path fill="#FFF" d="M22.409-3.527L-4.91-.202l2.255 18.208 27.318-3.325z" mask="url(#h)"/>
        </g>
    </g>
</svg>
