<svg width="260" height="55" viewBox="0 0 260 55" fill="none" xmlns="http://www.w3.org/2000/svg">
<path d="M255.285 26V25.691C255.285 21.7357 254.203 18.4728 252.04 15.9042C249.873 13.3356 246.976 12.0513 243.346 12.0513C239.715 12.0513 236.841 13.3356 234.726 15.9042C232.614 18.4728 231.555 21.7357 231.555 25.691V26H255.285ZM243.346 7.5813C248.52 7.5813 252.562 9.35421 255.47 12.8991C258.382 16.444 259.837 21.2983 259.837 27.4639V28.6198C259.837 29.1335 259.675 29.5449 259.352 29.8529C259.027 30.161 258.619 30.3155 258.119 30.3155H231.555V31.086C231.655 33.5002 232.191 36.2373 233.159 38.3173C234.129 40.3982 235.485 42.0678 237.226 43.327C238.967 44.5853 241.008 45.2144 243.346 45.2144C246.083 45.2144 248.306 44.6625 250.025 43.5578C251.74 42.4531 252.97 41.3363 253.718 40.2056C254.166 39.5895 254.5 39.2042 254.726 39.0497C254.948 38.8952 255.359 38.8189 255.955 38.8189H257.149C257.597 38.8189 257.971 38.9473 258.27 39.2042C258.567 39.4611 258.716 39.7942 258.716 40.2056C258.716 41.2852 258.059 42.5816 256.741 44.0976C255.422 45.6127 253.592 46.9231 251.254 48.0278C248.918 49.1325 246.28 49.6844 243.346 49.6844C238.619 49.6844 234.815 48.079 231.928 44.8682C229.043 41.6574 227.402 36.8654 227.005 31.4713L226.928 28.3881L227.005 25.3057C227.402 19.9628 229.032 15.6734 231.892 12.4366C234.751 9.19972 238.571 7.5813 243.346 7.5813Z" fill="white"/>
<path d="M223.354 47.9766C223.354 48.494 223.203 48.9082 222.902 49.219C222.602 49.5289 222.201 49.6844 221.7 49.6844H220.423C219.921 49.6844 219.52 49.5289 219.219 49.219C218.918 48.9082 218.767 48.494 218.767 47.9766V25.893C218.767 21.7013 217.778 17.9079 215.798 15.5785C213.818 13.249 210.974 12.0848 207.265 12.0848C203.657 12.0848 200.775 13.262 198.619 15.6175C196.465 17.9721 195.387 21.7525 195.387 25.893V47.9766C195.387 48.494 195.237 48.9082 194.936 49.219C194.636 49.5289 194.234 49.6844 193.733 49.6844H192.455C191.954 49.6844 191.553 49.5289 191.252 49.219C190.951 48.9082 190.801 48.494 190.801 47.9766V10.0662C190.801 9.54871 190.951 9.13457 191.252 8.82373C191.553 8.51289 191.954 8.3584 192.455 8.3584H193.733C194.234 8.3584 194.636 8.51289 194.936 8.82373C195.237 9.13457 195.387 9.54871 195.387 10.0662V13.7153C196.891 11.6967 198.607 10.1695 200.536 9.13457C202.466 8.09875 204.96 7.5813 208.017 7.5813C212.929 7.5813 216.713 9.19879 219.368 12.4338C222.027 15.6687 223.354 20.3807 223.354 25.5049" fill="white"/>
<path d="M170.341 12.1034C166.768 12.1034 163.887 13.2862 161.697 15.6511C159.508 18.0159 158.337 21.3821 158.187 25.7478L158.111 28.6328L158.187 31.5179C158.337 35.8845 159.508 39.2498 161.697 41.6146C163.887 43.9794 166.768 45.1623 170.341 45.1623C173.914 45.1623 176.796 43.9794 178.985 41.6146C181.174 39.2498 182.345 35.8845 182.495 31.5179C182.546 30.9976 182.572 30.0363 182.572 28.6328C182.572 27.2294 182.546 26.268 182.495 25.7478C182.345 21.3821 181.174 18.0159 178.985 15.6511C176.796 13.2862 173.914 12.1034 170.341 12.1034ZM187.101 25.3588C187.151 25.8781 187.176 26.9697 187.176 28.6328C187.176 30.2959 187.151 31.3876 187.101 31.9078C186.95 37.1577 185.427 41.4322 182.534 44.7332C179.64 48.0343 175.576 49.6844 170.341 49.6844C165.106 49.6844 161.043 48.0343 158.148 44.7332C155.255 41.4322 153.732 37.1577 153.582 31.9078L153.506 28.6328L153.582 25.3588C153.732 20.108 155.255 15.8335 158.148 12.5324C161.043 9.23136 165.106 7.5813 170.341 7.5813C175.576 7.5813 179.64 9.23136 182.534 12.5324C185.427 15.8335 186.95 20.108 187.101 25.3588Z" fill="white"/>
<path d="M128.145 25.9879C131.949 25.9879 133.85 24.4886 133.85 21.4919C133.85 18.4951 131.949 16.9968 128.145 16.9968H121.499V25.9879H128.145ZM128.145 7.5813C133.399 7.5813 137.478 8.74555 140.379 11.0741C143.28 13.4026 144.731 16.8758 144.731 21.4919C144.731 27.3643 142.398 31.4136 137.732 33.6416L145.026 47.6797C145.143 47.9226 145.202 48.146 145.202 48.3479C145.202 48.7127 145.075 49.0264 144.82 49.2898C144.564 49.5522 144.26 49.6844 143.908 49.6844H135.909C135.202 49.6844 134.674 49.5327 134.321 49.2293C133.968 48.9249 133.673 48.5303 133.439 48.0445L126.91 35.4639H121.499V48.0445C121.499 48.4894 121.342 48.8747 121.028 49.1985C120.714 49.5224 120.341 49.6844 119.91 49.6844H112.205C111.774 49.6844 111.401 49.5224 111.087 49.1985C110.774 48.8747 110.617 48.4894 110.617 48.0445V9.22112C110.617 8.77627 110.774 8.39097 111.087 8.0671C111.401 7.74323 111.774 7.5813 112.205 7.5813" fill="white"/>
<path d="M105.293 7.5813C105.725 7.5813 106.1 7.74323 106.414 8.0671C106.73 8.39097 106.887 8.77627 106.887 9.22112V48.0436C106.887 48.4894 106.73 48.8747 106.414 49.1986C106.1 49.5224 105.725 49.6844 105.293 49.6844H97.5557C97.1223 49.6844 96.7486 49.5224 96.4331 49.1986C96.1184 48.8747 95.9606 48.4894 95.9606 48.0436V33.5802H82.849V48.0436C82.849 48.4894 82.6922 48.8747 82.3766 49.1986C82.0619 49.5224 81.6883 49.6844 81.2549 49.6844H73.5179C73.0845 49.6844 72.7109 49.5327 72.3953 49.2293C72.0806 48.9249 71.9229 48.5303 71.9229 48.0436V9.22112C71.9229 8.77627 72.0806 8.39097 72.3953 8.0671C72.7109 7.74323 73.0845 7.5813 73.5179 7.5813H81.2549C81.6883 7.5813 82.0619 7.74323 82.3766 8.0671C82.6922 8.39097 82.849 8.77627 82.849 9.22112V23.8613H95.9606V9.22112C95.9606 8.77627 96.1184 8.39097 96.4331 8.0671C96.7486 7.74323 97.1223 7.5813 97.5557 7.5813" fill="white"/>
<path fill-rule="evenodd" clip-rule="evenodd" d="M33.4486 11.3335C34.077 10.9593 36.1037 10.3972 40.246 9.00216C41.8774 8.36932 43.4344 7.80534 44.8227 7.33721C42.6881 5.3 40.2615 3.66204 37.6562 2.45776C36.6796 3.50476 35.5225 4.66064 34.2294 5.8435C31.4862 8.35349 29.3861 9.31952 28.1183 9.61268C28.0249 10.6764 26.9984 12.8467 25.6953 16.7555C25.2374 18.1282 24.7486 19.433 24.2635 20.6233C24.3197 20.6233 24.3787 20.6233 24.4439 20.6233C24.4838 20.6233 24.5292 20.6242 24.5791 20.6261C25.465 19.4218 26.5097 18.0733 27.6568 16.6652C30.3337 13.3781 32.3504 11.8351 33.4486 11.3335Z" fill="#00BFA5"/>
<path fill-rule="evenodd" clip-rule="evenodd" d="M50.1827 14.5067C49.0864 12.3904 47.757 10.4854 46.2445 8.80273C44.8915 9.47002 43.2855 10.1848 41.5181 10.8716C38.0804 12.2062 35.7817 12.3355 34.4967 12.1419C34.0388 13.1005 32.3222 14.7497 29.7396 17.9204C28.8772 18.9795 28.0094 19.9707 27.1787 20.8678C27.3837 20.8985 27.5387 20.9274 27.6067 20.9516C35.8596 22.7356 41.8546 29.0548 41.7721 33.6997C41.6895 38.3447 37.9127 41.4615 31.0853 44.2311C25.3234 46.3521 21.5003 45.2855 17.1775 44.2311C16.0993 43.9472 14.9875 43.548 13.9375 42.9756L14.0245 43.2027C14.8579 45.5108 14.6928 47.9993 13.7262 50.3688C13.6591 50.5326 13.5865 50.7373 13.5076 50.9505C21.1629 55.4474 30.8323 55.936 39.1967 51.3711C52.1505 44.3028 57.0691 27.7975 50.1827 14.5067Z" fill="#00BFA5"/>
<path fill-rule="evenodd" clip-rule="evenodd" d="M26.0604 32.7657C27.7172 32.6764 29.0021 31.4553 28.9296 30.0379C28.857 28.6215 27.4551 27.5438 25.7983 27.6331C24.1416 27.7225 22.8575 28.9435 22.9292 30.3609C23.0017 31.7783 24.4037 32.855 26.0604 32.7657Z" fill="#00BFA5"/>
<path fill-rule="evenodd" clip-rule="evenodd" d="M9.49156 38.051C9.33286 37.6499 9.19412 37.2255 9.07896 36.776C6.77475 26.9129 16.5311 22.3889 17.6284 22.0837C18.7256 21.7784 19.5998 21.3727 21.6664 20.9511C21.7489 20.9362 21.8224 20.9232 21.8986 20.9092C22.2912 19.5272 22.7682 17.9804 23.3114 16.3518C24.6598 12.3062 26.0019 10.1247 26.8534 9.24895C27.3032 8.67008 28.9989 7.40159 32.3895 4.56774C33.5475 3.50771 34.6701 2.52028 35.702 1.64733C28.9037 -0.853358 21.1414 -0.516459 14.2614 3.23782C2.53177 9.6389 -2.60894 23.7775 1.63766 36.2604C4.57482 36.1953 7.30433 36.8235 9.49156 38.051Z" fill="#00BFA5"/>
</svg>
